<svg xmlns="http://www.w3.org/2000/svg" width="687.39" height="674.529" viewBox="0 0 181.872 178.469" xmlns:v="https://vecta.io/nano"><path d="M129.476 0l-8.563.07h-8.261-6.427v14.689V163.78v14.688h23.24 7.299c24.759 0 44.995-20.743 45.095-45.482h.002v-.143l.001-.04v-7.299h-.001v-6.097-66.443h.012v-7.299C181.872 20.845 161.595 0 136.775 0zM45.109 0C20.35 0 .114 20.743.014 45.482H.012v.143l-.001.04v7.299h.001v6.097 66.443H0v7.299c0 24.82 20.278 45.665 45.098 45.665h7.299 34.904V163.78 14.758.069h-6.427-8.261-20.205V0zm.568 14.74v.018h6.73l.001 23.851V14.758h20.205v12.857V163.78H52.396v-38.276 38.276h-6.212c-23.388-2.136-30.537-15.791-31.484-34.477v-3.799h37.696l-37.696-.001V52.965h13.647a16.82 16.82 0 0 0-.039.784c0 9.289 7.531 16.82 16.82 16.82s16.819-7.53 16.82-16.82a16.82 16.82 0 0 0-9.539-15.139c-2.27-1.099-4.758-1.674-7.28-1.681-8.976.011-16.362 7.069-16.781 16.035H14.7v-3.528c.885-18.684 7.893-32.394 30.977-34.696zm96.065 65.441a17.98 17.98 0 0 1 18.072 18.072 17.98 17.98 0 0 1-18.072 18.072 17.98 17.98 0 0 1-18.072-18.072 17.98 17.98 0 0 1 18.072-18.072z" fill="#ff5400"/></svg>