<svg xmlns="http://www.w3.org/2000/svg" width="384.155" height="343.865" xmlns:v="https://vecta.io/nano"><path d="M353.576 0H30.58C13.719 0 0 13.718 0 30.58v214.615c0 16.862 13.719 30.58 30.58 30.58h121.86l-29.271 30.702c-2.062 2.893-3.17 6.358-3.17 9.91v10.4a17.08 17.08 0 0 0 17.078 17.078h110a17.08 17.08 0 0 0 17.078-17.078v-10.4c0-3.553-1.108-7.017-3.17-9.91l-29.27-30.702h121.86c16.861 0 30.58-13.718 30.58-30.58V30.58C384.156 13.718 370.438 0 353.576 0zM350 241.62H192.094c-.022-.001-.027 0-.032 0H34.156V34.155H350z" fill="#ff5400"/></svg>