<svg xmlns="http://www.w3.org/2000/svg" height="533.337" width="691.015" preserveAspectRatio="xMidYMid" viewBox="-29.7 -38.205 148.223 152.82" xmlns:v="https://vecta.io/nano"><path d="M141.652 78.757c-3.869 4.88-13.344 8.36-13.344 8.36l-70.492 25.32V93.765l51.877-18.484c5.887-2.11 6.791-5.091 2.006-6.657-4.776-1.57-13.425-1.12-19.316.999L57.816 81.797V62.418l1.993-.674s9.988-3.535 24.034-5.091c14.045-1.547 31.242.211 44.743 5.329 15.215 4.808 16.928 11.895 13.065 16.775zM64.527 46.961V-.792c0-5.608-1.035-10.77-6.297-12.232-4.03-1.291-6.53 2.45-6.53 8.054v119.585l-32.25-10.236V-38.205c13.712 2.545 33.69 8.563 44.429 12.183 27.312 9.377 36.572 21.048 36.572 47.344 0 25.63-15.821 35.344-35.924 25.639zM-39.726 91.813c-15.62-4.399-18.219-13.564-11.1-18.844 6.58-4.875 17.77-8.545 17.77-8.545l46.241-16.442v18.745l-33.276 11.908c-5.878 2.109-6.782 5.095-2.005 6.66s13.433 1.12 19.32-.994l15.961-5.792v16.77l-3.184.535c-15.966 2.609-32.97 1.52-49.727-4.002z" fill="#ff5400" fill-rule="evenodd"/></svg>