<svg xmlns="http://www.w3.org/2000/svg" width="449.896" height="450.071" xmlns:v="https://vecta.io/nano"><path d="M328.26 281.447c40.2 49.3 58.7 89.6 49.3 107.7-7.2 13.7-51.4 40.5-84 50.7-26.9 8.4-62 12.1-91.1 9.3-34.7-3.4-69.8-15.8-99.9-35.4-25.3-16.5-31-23.3-31-36.8 0-27.1 29.8-74.7 80.9-128.9 29-30.8 69.4-66.9 73.8-65.9 8.7 1.9 76.6 68.1 102 99.3zm-164.5-158.2c-26.9-24.4-52.7-48.9-78.4-57.5-13.8-4.6-14.8-4.4-26 7.3-26.5 27.6-48.5 72.3-54.7 111-4.9 31-5.5 39.7-3.8 54.9 5.1 45.8 15.7 77.5 36.7 109.7 8.6 13.2 11 15.7 8.4 9-3.8-10-.3-34 8.6-58.1 13.1-35.3 49-102.3 109.2-176.3zm282.7 57.6c-15.3-72.6-61.2-118.2-67.7-118.2-6.6 0-22 5.9-32.7 12.6-21.1 13.2-37.2 28.5-58.3 47.9 38.5 48.3 92.7 126.5 111.5 183.5 6.2 18.8 8.8 37.3 6.7 47.4-1.5 7.7-1.5 7.7 1.3 4.2 5.5-7 18.1-28.4 23-39.5 6.7-14.7 13.6-36.5 16.9-53.2 3.9-20.4 3.6-64.2-.7-84.7zm-325.6-149c43.3-2.3 99.5 31.3 103.7 32.1.6.1 9.4-3.8 19.6-8.8 58-28.2 85.3-23.4 97.4-22.9-58-35.6-138.5-45.4-212.2-10.6-21.2 10.1-21.7 10.8-8.5 10.2z" fill="#ff5400"/></svg>